<svg version="1" xmlns="http://www.w3.org/2000/svg" width="3257.333" height="3257.333" viewBox="0 0 2443.000000 2443.000000"><path d="M221 16.5V33l3.8.1h26c25.3-.1 32.9.9 43.1 6.1 11.5 5.9 19.7 15.7 25.5 30.3 1.9 5 1.9 10.6 2.1 636.6.3 677.2.5 638.8-4.6 655.4-4.4 14.2-15.6 32.4-25.8 41.8-18.4 17-41.4 26.9-64.8 27.8l-5.3.3v33.2l440.8-.1c242.4 0 441.3.1 442 .3.9.3 1.2 86.5 1.2 426.6 0 257.1-.4 428.5-1 432.1-1.6 10.3-2.7 14.6-5.7 22-5.1 12.3-6.6 15-13.3 24-13 17.4-32.8 31-53.1 36.4-11.8 3.2-14.7 3.4-40.9 4l-2.5.1.3 16.5.3 16.5H1255.8l.1-16.5V2410l-3.2-.1c-23.9-.3-32-1.3-43.7-5.1-15.4-5-27.8-12.6-39.7-24.4-16.2-16.1-26.2-36.2-28.9-58.4-1-8.3-1.2-1309-.2-1308.4.5.3.8 1 .8 1.6 0 1.1 22.5 77 25.6 86.5.7 2.3 1.5 5.3 1.8 6.7.4 2.4 6.7 23.8 13.6 46.6 3.8 12.5 11.2 37 32.5 108.5 19.1 64 25.8 86.4 28.1 93.7.7 2.7 2 6.9 2.8 9.5.8 2.7 3 10 4.9 16.3 1.9 6.3 4.7 15.4 6.1 20.2 1.4 4.9 3.7 12.5 5.1 17 9.3 30.8 24.8 82.8 25.5 85.3.4 1.6 7.4 25 15.5 52 8.1 26.9 14.8 49.4 15 50 .1.5.5 1.7.8 2.5.3.8.7 2.4 1 3.5.3 1.1 2.8 9.6 5.7 19 2.8 9.3 8.3 27.6 12.1 40.5 3.9 12.9 9.7 32.3 12.9 43 3.2 10.7 7.2 24.2 8.9 30 1.7 5.8 3.7 12.5 4.5 15 .8 2.5 2.9 9.2 4.6 15 1.6 5.8 3.4 11.8 3.9 13.5 3.4 10.6 27.6 91.7 29.1 97 .4 1.6 3.8 12.9 7.5 25 3.6 12.1 7.7 25.6 9 30 1.3 4.4 3.9 13.2 5.8 19.5 2 6.3 4.7 15.5 6.2 20.5 1.5 4.9 3.9 13.3 5.5 18.5 1.6 5.2 4.2 14 5.8 19.5 3.8 12.7 19.5 64.9 27.3 91 3.4 11 6.4 21.3 6.9 23 .4 1.6 6.9 23.5 14.5 48.5 19.8 65.9 33.6 112.3 34.1 114 .2.8 3.1 10.5 6.4 21.5 8.3 27.2 13.8 45.7 16 53.5 1.7 5.6 14 47 17.1 57l1.1 3.5h13.2l6.3-24c3.5-13.2 7.9-30.1 9.9-37.5 1.9-7.4 4.8-18.5 6.4-24.5 4.5-17.2 29.4-111.5 33.4-126.5 2-7.4 7-26.3 11.1-42 9.9-37.6 11-41.8 14-53 2.5-9.4 15.2-57.8 22.1-84 2-7.4 3.7-14.2 3.9-15 .2-.8 1.1-4.2 2-7.5 1.6-5.8 4.2-15.5 13.9-52.5 2.5-9.6 5.8-21.8 7.2-27 1.4-5.2 2.7-10.5 3-11.8.2-1.2 1.6-6.4 3-11.5 1.4-5 3.8-14.2 5.4-20.2 1.6-6.1 3.7-14.4 4.8-18.5 1.2-4.1 3.6-13.6 5.6-21 1.9-7.4 4.2-16.2 5.1-19.5.9-3.3 2.7-10.3 4.1-15.5 1.4-5.2 3.2-12 4-15 .9-3 1.8-6.3 1.9-7.2.2-1 1.6-6.2 3-11.5 1.5-5.4 2.8-10.5 3-11.3.2-.8 1.9-7.4 3.8-14.5 3.2-12 4.6-17.4 5.3-20 .3-1.3 4.6-17.5 7.8-29.5 1.4-5.2 3.6-13.8 5-19 2.8-10.6 8.5-32.3 17.5-66.5 3.4-12.7 9-34.3 12.6-48 3.6-13.8 7.5-28.2 8.6-32 1-3.9 5-18.9 8.8-33.5 3.8-14.6 9.3-35.3 12.1-46 2.9-10.7 5.3-20.2 5.5-21 .5-2.4 13.4-51 15-56.5.7-2.8 4.3-16.3 7.9-30 3.6-13.8 7.2-27.7 8.1-31 1.5-5.7 3.4-12.7 9.1-34.3 1.4-5.3 3.6-13.8 4.9-18.7 2.2-8.5 9.8-37.5 15-57 5.1-19.3 13.5-50.8 18-68 9-34.7 16.5-63 17.5-66.5 1.5-5.1 7.1-26.2 7.5-28 .2-.8 1.2-4.9 2.3-9 1.1-4.1 3.4-12.9 5.1-19.5 1.7-6.6 3.3-12.5 3.5-13 .6-1.9 0 1310-.7 1312.3-.3 1.3-.8 3.1-1.1 4-.3.9-.7 2.9-1 4.4-2.3 13.3-14.3 34.3-26.2 46-19.2 18.7-41.4 28.2-70.1 29.7-1 .1-1.3 4.1-1.3 16.6v16.5h370v-33.5l-4.3-.1c-21.3-.3-45.4-10.6-61.6-26.2-14.6-14.2-23.3-29.9-27.8-50.2-1.5-6.9-1.6-54.7-1.7-641.4-.1-577.1 0-634.5 1.5-640 4.9-19.2 18-32.6 37.3-38.2 5-1.5 10.2-1.8 31.3-1.8l25.3-.1v-33.1h-137.3c-93.4 0-137.4.4-137.4 1.1 0 .5-1.1 4.6-2.3 9-2.7 9.9-9.9 36.8-11 41.5-.5 1.9-1.8 7.1-3 11.5s-2.4 8.7-2.5 9.5c-.2.8-2.3 8.5-4.5 17-2.3 8.5-4.3 16.2-4.5 17-.2.8-1.1 4.2-2 7.5-.9 3.3-2.8 10.3-4.1 15.5-1.4 5.2-3.3 12.6-4.4 16.5-2 7.4-3.5 13.2-13.1 49.5-5.2 19.8-8.6 32.6-18.4 69.5-1.3 4.9-4 15.1-6 22.5-2.1 7.4-3.8 14.1-4 15-.2.8-1.3 5.1-2.4 9.5-1.2 4.4-2.3 8.7-2.5 9.5-.2.8-2 7.3-3.9 14.5-3.6 13.4-4.8 18.3-5.2 20-.2.5-1 3.7-1.9 7-.9 3.3-1.8 6.7-2 7.5-.2.8-1.4 5.1-2.6 9.5-1.2 4.4-2.5 9.6-3 11.5-.4 1.9-1.5 6.2-2.4 9.5-1 3.3-2.8 10.3-4.2 15.5-1.4 5.2-2.9 10.8-3.4 12.5-.5 1.6-1.1 4.1-1.4 5.5-.3 1.4-2.5 9.9-4.9 19-3.8 14-7.7 28.7-22.7 85.5-1 3.8-3.1 11.5-4.5 17-1.5 5.5-2.9 10.7-3 11.5-.2.8-2.7 10-5.5 20.5-2.8 10.4-5.3 19.7-5.5 20.5-.7 3.3-8.8 34.1-11.2 42.5-1.4 4.9-2.6 9.7-2.8 10.5-.2.8-2.4 9.4-5 19-2.5 9.6-5.7 21.5-7 26.5-1.3 4.9-3.9 14.8-5.8 22-1.9 7.1-7.8 29.4-13.2 49.5-5.3 20.1-9.8 37.2-10 38-.4 1.9-10 38-13 49-1.2 4.7-3.7 14.1-5.5 21-1.7 6.9-3.8 14.7-4.6 17.5-1.1 4.1-3.8 14.2-9 33.5-.2.8-1 4-1.8 7s-4.9 18.5-9.1 34.5c-4.2 15.9-8.5 32.1-9.5 36-1 3.8-3.6 13.7-5.9 22-2.2 8.2-5.6 21.3-7.6 29-6.8 25.9-14.8 55.8-18 67.5-1.4 5-1.5 4.9-4.4-5.5-1.1-3.9-2.9-10.2-4.1-14-1.2-3.9-2.5-8.4-2.9-10-.5-1.7-2-6.9-3.5-11.7-1.5-4.8-2.9-9.5-3.1-10.5-.2-1-4.1-14-8.6-28.8-4.4-14.9-8.5-28.4-8.9-30-.5-1.7-2.2-7.5-3.8-13-1.7-5.5-4.2-14.1-5.7-19-3.4-11.6-16.1-54.3-28.2-95-9.4-31.9-12.6-42.6-22.2-75-2.7-9.4-6.2-20.8-7.6-25.5-1.4-4.7-3-9.9-3.5-11.5-2-7.3-16.4-56.8-22-75.5-3.4-11.3-8.1-27.3-10.5-35.5-6.1-20.6-13.1-44-16.7-56-1.6-5.5-4.7-15.9-6.8-23-2.1-7.2-6.4-21.5-9.5-32-3.1-10.4-5.8-19.7-6-20.5-.2-.8-1-3.5-1.8-6-.9-2.5-6.1-20-11.7-39s-11-37.2-12-40.5c-1.1-3.3-9.4-31.2-18.5-62s-17.9-60.3-19.4-65.5c-4.5-14.6-7.5-25-13.1-44-2.8-9.6-6-20.2-7-23.5-1-3.3-2.7-9.2-3.8-13-3.4-11.2-11.1-37.4-13.4-45-1.1-3.9-2.8-9.7-3.8-13-1-3.3-3-10.1-4.5-15-1.5-5-3.1-10.4-3.6-12-.5-1.7-2.3-7.7-4-13.5-1.7-5.8-5.7-19.5-9-30.5s-6.2-20.7-6.4-21.5c-.7-2.4-8.5-28.9-10.7-36-1.1-3.6-2.4-8.1-2.9-10-.5-1.9-4.2-14.3-8.1-27.5l-7.3-23.9-159.5-.1H988.5v16.4c0 10 .4 16.5 1 16.7.6.1 3.9.5 7.5.8 33.1 2.6 63 23.2 77 53.1 4.8 10.4 5 10.8 5.5 13 .3 1.1 1.2 4.9 2.1 8.5 2.2 8.8 2.2 29 0 39-2.3 10.2-2.1 9.3-5.1 20.5-1.4 5.5-2.8 10.9-3 12-2.1 9.5-14.5 47.4-21.2 64.5-10.8 27.6-29.7 64.3-44.6 86.5-2.2 3.3-4.4 6.1-4.9 6.3-.4.2-.8.8-.8 1.3s-.7 1.7-1.4 2.6c-.8 1-3.2 4.1-5.3 7-10 13.5-29.6 33.8-42.8 44.3-10.3 8.3-31.5 23-33 23-.3 0-2.8 1.5-5.7 3.3-4.7 2.9-16.3 8.6-29.8 14.4-12.2 5.4-36.7 12.4-53 15.2-25.9 4.5-26.2 4.5-141.5 4.4-102.1 0-105.3-.1-114.1-2.1-31.2-7-56-26.4-70.2-54.7-1.6-3.3-3.5-7.8-4.2-10-1.3-4.6-3.9-14.8-4.7-18.5-.3-1.4-.6-136.6-.7-300.6l-.2-298h360.1l.3-16.2.2-16.2H495.4V395.7c.1-312.8.2-319.3 2.1-325.2 5.4-16.7 15.7-27.5 32.9-34.2l7.1-2.8h132c72.6.1 134.9.4 138.5.8 37.2 4.2 64.4 12 94.8 27 15.8 7.9 40.2 23.3 47.5 30 .7.7 4.2 3.6 7.7 6.6 13.5 11.3 28.7 27.6 40.6 43.6 6 8 22.4 32.9 22.4 34 0 .3 1.2 2.4 2.6 4.7 4.1 6.5 17.6 34.1 23.7 48.3 6 14.1 7 16.8 12.4 32.5 1.9 5.8 3.9 11.4 4.4 12.5 3.7 9 18.8 66.8 21.5 82.5.3 1.4.9 4.7 1.4 7.5 1.2 5.8 1.3 6.7 2.9 15.7 2.9 17.6 3.7 23.4 4.6 33.3.4 3.8.8 8.1 1 9.5 1.3 8.1 2.3 28.6 2.4 48.1l.1 15.6h57.2l-.7-7.6c-.3-4.2-.8-8.7-1-10.1-.2-1.4-.7-5.9-1-10.1-.3-4.2-.8-8.7-1-10-.2-1.3-.6-6.5-1-11.4-.4-5-.8-9.2-1-9.5-.1-.3-.6-4.6-1-9.5-.3-5-.8-10.4-1-12-.2-1.7-.7-6.6-1-11-.3-4.4-.8-9.1-1-10.5-.4-2.4-1.3-11.7-2-20.5-.2-2.2-.6-6.5-.9-9.5-.3-3-.8-8.2-1.1-11.5-.3-3.3-.8-8-1.1-10.5-.8-7.3-1.2-12.1-1.9-20-.3-4.1-.8-8.6-1-10-.2-1.4-.6-5.9-1-10-.3-4.1-.8-9.1-1-11-.2-1.9-.6-6.7-1-10.5-.3-3.9-.8-8.9-1-11.3-.9-8.1-1.4-12.7-2-19.2-.6-7.3-1.4-15.8-2-21-.2-1.9-.6-6.9-1-11-.3-4.1-.8-8.6-1-10-.2-1.4-.6-5.7-1-9.5-1.2-15.4-1.7-20.1-2-22.5-.2-1.4-.7-5.7-1-9.5-.3-3.9-.8-8.4-1-10-.2-1.7-.7-6.4-1.1-10.5-.3-4.1-.7-8.9-.9-10.5-.4-4.8-1.5-16.7-2-21-.2-2.2-.7-7.2-1-11-.3-3.9-.8-8.6-1-10.5-.8-7.6-1.5-13.8-2-20.5-.3-3.9-.8-8.6-1-10.5-.4-3.4-.9-7.9-2-20.5-.3-3.3-1-10.3-1.5-15.5-.6-5.2-1.1-11-1.2-12.8l-.2-3.2H221v16.5z"/></svg>